<svg xmlns="http://www.w3.org/2000/svg" version="1.2" baseProfile="tiny" width="149.76" height="188.16" viewBox="22 -18 156 196"><g transform="translate(0,0)" stroke-width="4" stroke="rgb(255, 0, 0)" fill="none" ><path d="M35,18 l25,-25 m0,25 l-25,-25   M70,18 l25,-25 m0,25 l-25,-25   M105,18 l25,-25 m0,25 l-25,-25    M140,18 l25,-25 m0,25 l-25,-25" stroke-width="8" stroke-linecap="round" stroke-linejoin="round" stroke="#07131d" fill="none" ></path></g><text x="100" y="103" text-anchor="middle" font-size="39" font-family="Arial" font-weight="bold" dominant-baseline="middle" stroke-width="4" stroke-linecap="round" stroke-linejoin="round" stroke="#07131d" fill="none" >SEC</text><path d="M 100,28 L172,100 100,172 28,100 100,28 Z" stroke-width="8" stroke-linecap="round" stroke-linejoin="round" stroke="#07131d" fill="none" ></path><path d="M 100,28 L172,100 100,172 28,100 100,28 Z" stroke-width="4" stroke="rgb(255, 0, 0)" fill="none" fill-opacity="1" ></path><text x="100" y="103" text-anchor="middle" font-size="39" font-family="Arial" font-weight="bold" dominant-baseline="middle" stroke-width="3" stroke="none" fill="rgb(255, 0, 0)" >SEC</text><g transform="translate(0,0)" stroke-width="4" stroke="rgb(255, 0, 0)" fill="none" ><path d="M35,18 l25,-25 m0,25 l-25,-25   M70,18 l25,-25 m0,25 l-25,-25   M105,18 l25,-25 m0,25 l-25,-25    M140,18 l25,-25 m0,25 l-25,-25" ></path></g></svg>